<?xml version="1.0" encoding="utf-8"?>
<svg xmlns="http://www.w3.org/2000/svg" viewBox="0 0 512 512">
<g transform="translate(256,256) scale(0.04267,-0.04267) translate(-6000,-12000)" fill="#000000">
<path d="M3668 8911 c-94 -19 -169 -105 -176 -199 -5 -76 10 -115 100 -252 41
-63 112 -173 157 -245 46 -71 170 -265 277 -430 106 -165 262 -408 347 -540
185 -287 283 -440 576 -895 245 -379 279 -440 313 -556 l22 -79 6 -1185 5
-1185 28 -53 c36 -69 105 -138 165 -165 46 -22 56 -22 517 -22 l470 0 43 23
c67 36 129 98 159 161 l28 56 5 1170 6 1170 22 78 c34 117 59 166 188 364 66
101 173 267 239 370 66 103 156 243 200 310 44 68 116 179 160 248 44 69 112
174 150 234 112 172 392 608 491 763 50 79 141 221 202 316 147 227 155 244
156 317 0 94 -50 172 -139 212 -36 16 -83 18 -535 21 -330 2 -516 -1 -559 -8
-128 -22 -192 -74 -281 -228 -75 -128 -213 -361 -525 -887 -127 -214 -285
-481 -351 -592 -65 -111 -121 -203 -124 -203 -3 0 -12 12 -21 28 -9 15 -169
284 -356 597 -187 314 -402 676 -478 805 -76 129 -156 266 -179 305 -45 76
-110 133 -186 162 -40 15 -100 17 -565 19 -286 1 -537 -1 -557 -5z m2493
-2425 c255 -164 489 -314 519 -334 67 -46 94 -89 94 -153 0 -79 -30 -110 -205
-220 -85 -53 -298 -187 -474 -299 -356 -226 -415 -260 -454 -260 -34 1 -101
31 -124 58 -45 50 -46 63 -47 727 0 381 4 644 10 664 11 38 41 74 85 103 22
14 43 18 81 15 48 -3 84 -24 515 -301z"/>
</g>
</svg>

